<?xml version="1.0" standalone="no"?>
<!DOCTYPE svg PUBLIC "-//W3C//DTD SVG 20010904//EN"
 "http://www.w3.org/TR/2001/REC-SVG-20010904/DTD/svg10.dtd">
<svg version="1.0" xmlns="http://www.w3.org/2000/svg"
 width="192.000000pt" height="192.000000pt" viewBox="0 0 192.000000 192.000000"
 preserveAspectRatio="xMidYMid meet">
<metadata>
Created by potrace 1.11, written by Peter Selinger 2001-2013
</metadata>
<g transform="translate(0.000000,192.000000) scale(0.100000,-0.100000)"
fill="#000000" stroke="none">
<path d="M729 1746 c-2 -2 -22 -6 -44 -9 -45 -7 -141 -34 -167 -48 -14 -8 -15
-14 -6 -39 9 -26 6 -39 -18 -85 -15 -30 -28 -55 -30 -55 -1 0 -33 18 -70 40
-116 68 -314 134 -329 109 -3 -4 -3 -21 -1 -36 16 -91 22 -351 12 -483 -3 -36
-13 -81 -22 -102 l-16 -36 70 -161 71 -162 -61 -37 c-33 -20 -65 -42 -72 -48
-6 -5 -20 -14 -31 -18 -19 -7 -18 -10 15 -38 83 -71 331 -215 350 -203 4 2 13
-5 21 -17 42 -60 50 -67 77 -63 31 3 347 18 373 17 14 0 66 -20 174 -67 109
-46 104 -48 125 42 l12 55 61 -6 c34 -3 76 -8 92 -10 83 -12 134 -18 172 -21
23 -2 51 -6 62 -10 17 -5 23 1 36 32 36 84 83 227 101 305 2 10 6 28 9 40 3
13 8 37 10 53 3 17 8 37 10 45 8 29 28 152 28 178 0 21 87 92 112 92 60 0 57
10 -34 104 -49 50 -100 105 -113 121 -12 17 -28 35 -35 40 -20 17 -165 228
-179 262 -8 17 -18 34 -24 38 -17 10 -11 25 13 35 19 7 16 9 -18 10 -74 3
-102 6 -233 25 -37 5 -131 35 -232 73 -77 29 -112 36 -181 39 -47 1 -88 1 -90
-1z"/>
</g>
</svg>
